<svg xmlns="http://www.w3.org/2000/svg" width="512" height="512" viewBox="0 0 512 512">
  <rect x="6" y="6" width="500" height="500" rx="112" fill="#1B1E2B" stroke="#30344A" stroke-width="8"/>
  <path fill="#C8CCF5" fill-rule="evenodd" d="
    M147 136
    C177 113 220 117 248 141
    C274 163 280 188 302 204
    C326 221 354 218 377 233
    C396 246 401 268 388 285
    C377 300 358 301 344 291
    C332 283 317 284 303 294
    C286 307 271 320 250 325
    C248 361 234 396 210 419
    C193 436 166 429 149 411
    C123 383 110 345 118 307
    C124 280 141 258 157 241
    C136 216 125 181 131 158
    C134 149 140 141 147 136
    Z

    M229 190
    a13 13 0 1 0 0 26
    a13 13 0 1 0 0 -26
    Z

    M416 247
    a10 10 0 1 0 0 20
    a10 10 0 1 0 0 -20
    Z

    M443 219
    a8 8 0 1 0 0 16
    a8 8 0 1 0 0 -16
    Z

    M467 191
    a6 6 0 1 0 0 12
    a6 6 0 1 0 0 -12
    Z
  "/>
</svg>